#!OML:ASF F:\VICON\USERDATA\INSTALL\rory3\rory3.ASF
:FULLY-SPECIFIED
:DEGREES
173
root 4.78044 17.9998 0.916368 -6.13795 -48.0987 8.96041
lowerback 9.50028 0.166715 -4.7211
upperback 0.935486 -0.305329 -0.25706
thorax -4.33378 -0.077063 2.4306
lowerneck -19.9923 -7.2846 -12.9759
upperneck 27.9978 -9.6824 10.3605
head 14.1006 -4.33972 4.55623
rclavicle 1.45113e-014 1.43125e-014
rhumerus -36.731 -19.3842 -79.1426
rradius 26.4786
rwrist 10.8332
rhand -15.7016 8.23076
rfingers 7.12502
rthumb 10.488 -21.4876
lclavicle 1.45113e-014 1.43125e-014
lhumerus -30.2139 4.83522 79.0639
lradius 38.3377
lwrist -1.44011
lhand -19.0631 27.7408
lfingers 7.12502
lthumb 7.24422 57.5968
rfemur -21.9112 -7.17509 24.3777
rtibia 24.2514
rfoot -2.60384 -8.6473
rtoes 25.3531
lfemur 12.6316 4.59003 -23.8022
ltibia 23.983
lfoot 6.51324 -0.0824405
ltoes -34.7748
174
root 4.65373 18.0119 1.00531 -6.23172 -48.6338 8.73661
lowerback 9.58028 0.16743 -4.59856
upperback 0.938599 -0.291324 -0.163007
thorax -4.37631 -0.07059 2.45847
lowerneck -19.8394 -7.23926 -13.0868
upperneck 28.1171 -9.66357 10.4909
head 14.1321 -4.33606 4.64014
rclavicle 1.95306e-014 -7.95139e-015
rhumerus -36.9291 -19.2831 -79.0117
rradius 26.5568
rwrist 10.8276
rhand -15.6646 7.93815
rfingers 7.12502
rthumb 10.5237 -21.7784
lclavicle 1.95306e-014 -7.95139e-015
lhumerus -30.7652 4.75711 79.2426
lradius 38.2551
lwrist -1.18406
lhand -18.8289 27.6733
lfingers 7.12502
lthumb 7.47031 57.5214
rfemur -21.0809 -7.5423 24.7338
rtibia 24.1694
rfoot -2.8357 -7.75671
rtoes 24.2539
lfemur 11.7507 4.84909 -23.2505
ltibia 26.494
lfoot 8.35248 -1.32027
ltoes -32.8859
175
root 4.53107 18.0203 1.08812 -6.06023 -49.1634 8.331
lowerback 9.56833 0.170759 -4.38488
upperback 0.924268 -0.256105 -0.0102759
thorax -4.38734 -0.0549669 2.49294
lowerneck -19.5799 -7.24639 -13.2711
upperneck 28.0421 -9.68332 10.6115
head 14.0666 -4.35914 4.71924
rclavicle 3.9906e-014 9.93923e-015
rhumerus -36.9821 -19.0939 -78.9382
rradius 26.5797
rwrist 10.6135
rhand -15.4905 7.79418
rfingers 7.12502
rthumb 10.6916 -21.9138
lclavicle 3.9906e-014 9.93923e-015
lhumerus -31.2025 4.55478 79.5445
lradius 38.1211
lwrist -0.738071
lhand -19.0106 27.5816
lfingers 7.12502
lthumb 7.29496 57.4359
rfemur -20.373 -7.65462 25.1922
rtibia 24.0313
rfoot -3.18991 -7.20246
rtoes 24.0166
lfemur 10.6786 5.11254 -22.5998
ltibia 28.999
lfoot 10.0521 -2.44041
ltoes -31.0685
176
root 4.41072 18.0258 1.16891 -5.94199 -49.706 7.9836
lowerback 9.61904 0.153537 -4.27011
upperback 0.906343 -0.262732 0.130551
thorax -4.43368 -0.0576588 2.5766
lowerneck -19.3646 -7.23758 -13.3189
upperneck 27.9088 -9.66966 10.604
head 13.9629 -4.36661 4.72513
rclavicle 8.10048e-015 1.66979e-014
rhumerus -36.9103 -18.7551 -78.9962
rradius 26.5077
rwrist 10.315
rhand -15.7695 7.81849
rfingers 7.12502
rthumb 10.4225 -21.9032
lclavicle 8.10048e-015 1.66979e-014
lhumerus -31.6049 4.41704 79.7946
lradius 37.8932
lwrist -0.542231
lhand -18.9983 27.2053
lfingers 7.12502
lthumb 7.30675 57.0591
rfemur -19.5895 -7.6802 25.5667
rtibia 23.7762
rfoot -3.52838 -6.7344
rtoes 24.2145
lfemur 9.55607 5.50652 -22.0439
ltibia 31.5375
lfoot 11.3919 -3.89898
ltoes -30.4047
177
root 4.28819 18.0414 1.25214 -5.81648 -50.2902 7.56273
lowerback 9.67566 0.15348 -4.03754
upperback 0.939121 -0.235294 0.234023
thorax -4.43344 -0.0481409 2.55018
lowerneck -19.2205 -7.27551 -13.3449
upperneck 27.8239 -9.72951 10.5984
head 13.9062 -4.40126 4.7142
rclavicle -4.30369e-014 3.97569e-016
rhumerus -36.8179 -18.2347 -79.2153
rradius 26.6325
rwrist 9.84691
rhand -16.1568 7.6815
rfingers 7.12502
rthumb 10.0489 -22.0586
lclavicle -4.30369e-014 3.97569e-016
lhumerus -31.9725 4.13226 80.0365
lradius 37.7304
lwrist -0.738685
lhand -18.7042 27.1791
lfingers 7.12502
lthumb 7.59069 57.0229
rfemur -18.634 -7.53386 25.9342
rtibia 23.3954
rfoot -3.8063 -6.30389
rtoes 24.5971
lfemur 8.45191 5.75649 -21.4394
ltibia 34.1135
lfoot 12.6618 -5.50162
ltoes -28.3176
178
root 4.16824 18.0614 1.33359 -5.56302 -50.7925 7.008
lowerback 9.75509 0.165777 -3.61057
upperback 0.928592 -0.172387 0.320315
thorax -4.49421 -0.0227673 2.39161
lowerneck -19.002 -7.34195 -13.4653
upperneck 27.8398 -9.84879 10.665
head 13.8973 -4.4671 4.74258
rclavicle -4.45278e-014 -1.98785e-014
rhumerus -36.9222 -17.9817 -79.2523
rradius 26.8788
rwrist 9.69502
rhand -16.0334 7.85038
rfingers 7.12502
rthumb 10.1679 -21.8839
lclavicle -4.45278e-014 -1.98785e-014
lhumerus -32.3442 3.13663 80.4747
lradius 37.6359
lwrist -0.66558
lhand -18.3616 27.6379
lfingers 7.12502
lthumb 7.92131 57.4695
rfemur -17.6295 -7.26983 26.3574
rtibia 22.8931
rfoot -3.98876 -6.05944
rtoes 24.2362
lfemur 7.27808 5.73657 -20.7783
ltibia 36.7168
lfoot 13.9675 -6.84056
ltoes -24.8422
179
root 4.05291 18.0774 1.41219 -5.14482 -51.2396 6.35568
lowerback 9.85918 0.146881 -3.17206
upperback 0.85312 -0.147052 0.464715
thorax -4.63351 -0.0134626 2.29244
lowerneck -18.9183 -7.39561 -13.5998
upperneck 28.0268 -9.92265 10.6608
head 13.9801 -4.52097 4.75697
rclavicle 1.49089e-016 4.77083e-015
rhumerus -37.0005 -18.1972 -78.9909
rradius 26.9448
rwrist 10.009
rhand -15.4412 8.41127
rfingers 7.12502
rthumb 10.7392 -21.2942
lclavicle 1.49089e-016 4.77083e-015
lhumerus -32.6829 1.99824 81.0256
lradius 37.4242
lwrist -0.535548
lhand -18.3536 27.7158
lfingers 7.12502
lthumb 7.92902 57.5471
rfemur -16.7062 -7.32587 26.8816
rtibia 22.2896
rfoot -4.12075 -5.59672
rtoes 23.5762
lfemur 6.00783 5.58126 -20.0962
ltibia 39.3062
lfoot 15.3425 -7.88827
ltoes -20.4079
180
root 3.93761 18.0931 1.48931 -4.70556 -51.7124 5.6929
lowerback 9.98841 0.0871563 -2.7766
upperback 0.775412 -0.181148 0.58644
thorax -4.78553 -0.0334265 2.20223
lowerneck -18.8957 -7.35457 -13.5311
upperneck 28.1536 -9.91094 10.6602
head 14.0232 -4.51316 4.75215
rclavicle 4.96962e-014 -2.38542e-015
rhumerus -37.0197 -18.0303 -79.0109
rradius 27.1046
rwrist 9.9042
rhand -14.8168 8.95478
rfingers 7.12502
rthumb 11.3415 -20.7185
lclavicle 4.96962e-014 -2.38542e-015
lhumerus -32.9693 1.32844 81.346
lradius 37.1224
lwrist -0.777407
lhand -18.1887 27.7016
lfingers 7.12502
lthumb 8.08818 57.5268
rfemur -15.7721 -7.49814 27.4257
rtibia 21.6124
rfoot -4.31684 -5.10016
rtoes 23.535
lfemur 4.72771 5.44736 -19.4269
ltibia 41.8444
lfoot 16.8731 -8.7644
ltoes -15.334
181
root 3.82341 18.1069 1.56419 -4.45199 -52.2328 5.21282
lowerback 10.0692 0.0902563 -2.50455
upperback 0.778685 -0.14375 0.692029
thorax -4.82973 -0.0191258 2.15429
lowerneck -18.773 -7.32032 -13.4468
upperneck 28.117 -9.9089 10.6651
head 13.975 -4.50808 4.74072
rclavicle -1.06201e-013 -3.97569e-016
rhumerus -36.9897 -17.3179 -79.2677
rradius 27.553
rwrist 9.35995
rhand -14.4803 8.85931
rfingers 7.12502
rthumb 11.666 -20.7959
lclavicle -1.06201e-013 -3.97569e-016
lhumerus -33.1598 0.804676 81.6853
lradius 36.9344
lwrist -1.2708
lhand -17.5239 27.5868
lfingers 7.12502
lthumb 8.72976 57.3863
rfemur -14.8248 -7.58525 27.8279
rtibia 20.9878
rfoot -4.5012 -4.63701
rtoes 23.4907
lfemur 3.50029 5.33605 -18.9047
ltibia 44.2656
lfoot 18.2553 -9.65071
ltoes -10.9666
